<?xml version="1.0" encoding="utf-8"?>
<!-- Generator: Adobe Illustrator 22.1.0, SVG Export Plug-In . SVG Version: 6.00 Build 0)  -->
<svg version="1.1" id="Layer_1" xmlns="http://www.w3.org/2000/svg" xmlns:xlink="http://www.w3.org/1999/xlink" x="0px" y="0px"
	 viewBox="0 0 1000 1000" style="enable-background:new 0 0 1000 1000;" xml:space="preserve">
<style type="text/css">
	.st0{fill:none;stroke:#000000;stroke-width:20;stroke-linecap:round;stroke-linejoin:round;stroke-miterlimit:10;}
</style>
<g id="mr-griddle">
	<line class="st0" x1="468.2" y1="425.2" x2="468.2" y2="358.2"/>
	<line class="st0" x1="468.2" y1="358.2" x2="391.8" y2="224.2"/>
	<line class="st0" x1="391.8" y1="224.2" x2="353.6" y2="123.7"/>
	<line class="st0" x1="391.8" y1="224.2" x2="315.5" y2="291.2"/>
	<line class="st0" x1="315.5" y1="291.2" x2="315.5" y2="391.7"/>
	<line class="st0" x1="315.5" y1="391.7" x2="353.6" y2="458.7"/>
	<line class="st0" x1="353.6" y1="458.7" x2="391.8" y2="492.2"/>
	<line class="st0" x1="391.8" y1="224.2" x2="468.2" y2="190.7"/>
	<line class="st0" x1="468.2" y1="190.7" x2="544.6" y2="123.7"/>
	<line class="st0" x1="544.6" y1="123.7" x2="620.9" y2="90.2"/>
	<line class="st0" x1="620.9" y1="90.2" x2="659.1" y2="56.7"/>
	<line class="st0" x1="468.2" y1="425.2" x2="430" y2="458.7"/>
	<line class="st0" x1="430" y1="458.7" x2="430" y2="626.2"/>
	<line class="st0" x1="430" y1="626.2" x2="391.8" y2="760.2"/>
	<line class="st0" x1="391.8" y1="760.2" x2="391.8" y2="827.2"/>
	<line class="st0" x1="468.2" y1="425.2" x2="506.4" y2="458.7"/>
	<line class="st0" x1="506.4" y1="458.7" x2="659.1" y2="425.2"/>
	<line class="st0" x1="659.1" y1="425.2" x2="773.6" y2="525.7"/>
	<line class="st0" x1="773.6" y1="525.7" x2="850" y2="525.7"/>
</g>
</svg>
