<?xml version="1.0" encoding="utf-8"?>
<!-- Generator: Adobe Illustrator 22.1.0, SVG Export Plug-In . SVG Version: 6.00 Build 0)  -->
<svg version="1.1" id="Layer_1" xmlns="http://www.w3.org/2000/svg" xmlns:xlink="http://www.w3.org/1999/xlink" x="0px" y="0px"
	 viewBox="0 0 1000 1000" style="enable-background:new 0 0 1000 1000;" xml:space="preserve">
<style type="text/css">
	.st0{fill:none;stroke:#000000;stroke-width:20;stroke-linecap:round;stroke-linejoin:round;stroke-miterlimit:10;}
</style>
<g id="mr-griddle">
	<line class="st0" x1="458.2" y1="469" x2="458.2" y2="402"/>
	<line class="st0" x1="458.2" y1="402" x2="420" y2="268"/>
	<line class="st0" x1="420" y1="268" x2="420" y2="167.5"/>
	<line class="st0" x1="420" y1="268" x2="343.7" y2="301.5"/>
	<line class="st0" x1="343.7" y1="301.5" x2="343.7" y2="402"/>
	<line class="st0" x1="343.7" y1="402" x2="420" y2="469"/>
	<line class="st0" x1="420" y1="469" x2="458.2" y2="536"/>
	<line class="st0" x1="420" y1="268" x2="496.4" y2="234.5"/>
	<line class="st0" x1="496.4" y1="234.5" x2="572.7" y2="167.5"/>
	<line class="st0" x1="572.7" y1="167.5" x2="649.1" y2="134"/>
	<line class="st0" x1="649.1" y1="134" x2="687.3" y2="67"/>
	<line class="st0" x1="458.2" y1="469" x2="420" y2="502.5"/>
	<line class="st0" x1="420" y1="502.5" x2="420" y2="670"/>
	<line class="st0" x1="420" y1="670" x2="381.8" y2="804"/>
	<line class="st0" x1="381.8" y1="804" x2="343.7" y2="837.5"/>
	<line class="st0" x1="458.2" y1="469" x2="534.6" y2="469"/>
	<line class="st0" x1="534.6" y1="469" x2="649.1" y2="469"/>
	<line class="st0" x1="649.1" y1="469" x2="801.8" y2="569.5"/>
	<line class="st0" x1="801.8" y1="569.5" x2="840" y2="569.5"/>
</g>
</svg>
