<?xml version="1.0" encoding="utf-8"?>
<!-- Generator: Adobe Illustrator 22.1.0, SVG Export Plug-In . SVG Version: 6.00 Build 0)  -->
<svg version="1.1" xmlns="http://www.w3.org/2000/svg" xmlns:xlink="http://www.w3.org/1999/xlink" x="0px" y="0px"
	 viewBox="0 0 680.2 860" style="enable-background:new 0 0 680.2 860;" xml:space="preserve">
<style type="text/css">
	.st0{display:none;}
	.st1{display:inline;}
	.st2{fill:none;stroke:#ffffff;stroke-width:20;stroke-linecap:round;stroke-linejoin:round;stroke-miterlimit:10;}
</style>
<g id="Layer_1" class="st0">
	<g id="mr-griddle" class="st1">
		<line class="st2" x1="265.3" y1="436" x2="265.3" y2="369"/>
		<line class="st2" x1="265.3" y1="369" x2="265.3" y2="235"/>
		<line class="st2" x1="265.3" y1="235" x2="265.3" y2="134.5"/>
		<line class="st2" x1="265.3" y1="235" x2="188.9" y2="268.5"/>
		<line class="st2" x1="188.9" y1="268.5" x2="150.8" y2="335.5"/>
		<line class="st2" x1="150.8" y1="335.5" x2="227.1" y2="436"/>
		<line class="st2" x1="227.1" y1="436" x2="265.3" y2="469.5"/>
		<line class="st2" x1="265.3" y1="235" x2="341.7" y2="201.5"/>
		<line class="st2" x1="341.7" y1="201.5" x2="456.2" y2="201.5"/>
		<line class="st2" x1="456.2" y1="201.5" x2="532.6" y2="134.5"/>
		<line class="st2" x1="532.6" y1="134.5" x2="570.8" y2="101"/>
		<line class="st2" x1="265.3" y1="436" x2="188.9" y2="436"/>
		<line class="st2" x1="188.9" y1="436" x2="150.8" y2="570"/>
		<line class="st2" x1="150.8" y1="570" x2="74.4" y2="704"/>
		<line class="st2" x1="74.4" y1="704" x2="36.2" y2="771"/>
		<line class="st2" x1="265.3" y1="436" x2="341.7" y2="436"/>
		<line class="st2" x1="341.7" y1="436" x2="456.2" y2="469.5"/>
		<line class="st2" x1="456.2" y1="469.5" x2="608.9" y2="536.5"/>
		<line class="st2" x1="608.9" y1="536.5" x2="647.1" y2="570"/>
	</g>
</g>
<g id="Ebene_2">
	<g id="mr-griddle_1_">
		<line class="st2" x1="265.3" y1="436" x2="265.3" y2="369"/>
		<line class="st2" x1="265.3" y1="369" x2="227.1" y2="235"/>
		<line class="st2" x1="227.1" y1="235" x2="227.1" y2="134.5"/>
		<line class="st2" x1="227.1" y1="235" x2="150.8" y2="268.5"/>
		<line class="st2" x1="150.8" y1="268.5" x2="150.8" y2="369"/>
		<line class="st2" x1="150.8" y1="369" x2="227.1" y2="436"/>
		<line class="st2" x1="227.1" y1="436" x2="265.3" y2="503"/>
		<line class="st2" x1="227.1" y1="235" x2="303.5" y2="201.5"/>
		<line class="st2" x1="303.5" y1="201.5" x2="379.8" y2="134.5"/>
		<line class="st2" x1="379.8" y1="134.5" x2="456.2" y2="101"/>
		<line class="st2" x1="456.2" y1="101" x2="494.4" y2="34"/>
		<line class="st2" x1="265.3" y1="436" x2="227.1" y2="469.5"/>
		<line class="st2" x1="227.1" y1="469.5" x2="227.1" y2="637"/>
		<line class="st2" x1="227.1" y1="637" x2="188.9" y2="771"/>
		<line class="st2" x1="188.9" y1="771" x2="150.8" y2="804.5"/>
		<line class="st2" x1="265.3" y1="436" x2="341.7" y2="436"/>
		<line class="st2" x1="341.7" y1="436" x2="456.2" y2="436"/>
		<line class="st2" x1="456.2" y1="436" x2="608.9" y2="536.5"/>
		<line class="st2" x1="608.9" y1="536.5" x2="647.1" y2="536.5"/>
	</g>
</g>
<g id="Ebene_3" class="st0">
	<g id="mr-griddle_2_" class="st1">
		<line class="st2" x1="265.3" y1="436" x2="265.3" y2="369"/>
		<line class="st2" x1="265.3" y1="369" x2="188.9" y2="235"/>
		<line class="st2" x1="188.9" y1="235" x2="150.7" y2="134.5"/>
		<line class="st2" x1="188.9" y1="235" x2="112.6" y2="302"/>
		<line class="st2" x1="112.6" y1="302" x2="112.6" y2="402.5"/>
		<line class="st2" x1="112.6" y1="402.5" x2="150.7" y2="469.5"/>
		<line class="st2" x1="150.7" y1="469.5" x2="188.9" y2="503"/>
		<line class="st2" x1="188.9" y1="235" x2="265.3" y2="201.5"/>
		<line class="st2" x1="265.3" y1="201.5" x2="341.7" y2="134.5"/>
		<line class="st2" x1="341.7" y1="134.5" x2="418" y2="101"/>
		<line class="st2" x1="418" y1="101" x2="456.2" y2="67.5"/>
		<line class="st2" x1="265.3" y1="436" x2="227.1" y2="469.5"/>
		<line class="st2" x1="227.1" y1="469.5" x2="227.1" y2="637"/>
		<line class="st2" x1="227.1" y1="637" x2="188.9" y2="771"/>
		<line class="st2" x1="188.9" y1="771" x2="188.9" y2="838"/>
		<line class="st2" x1="265.3" y1="436" x2="303.5" y2="469.5"/>
		<line class="st2" x1="303.5" y1="469.5" x2="456.2" y2="436"/>
		<line class="st2" x1="456.2" y1="436" x2="570.7" y2="536.5"/>
		<line class="st2" x1="570.7" y1="536.5" x2="647.1" y2="536.5"/>
	</g>
</g>
</svg>
