<?xml version="1.0" encoding="utf-8"?>
<!-- Generator: Adobe Illustrator 22.1.0, SVG Export Plug-In . SVG Version: 6.00 Build 0)  -->
<svg version="1.1" id="Layer_1" xmlns="http://www.w3.org/2000/svg" xmlns:xlink="http://www.w3.org/1999/xlink" x="0px" y="0px"
	 viewBox="0 0 1000 1000" style="enable-background:new 0 0 1000 1000;" xml:space="preserve">
<style type="text/css">
	.st0{fill:none;stroke:#000000;stroke-width:20;stroke-linecap:round;stroke-linejoin:round;stroke-miterlimit:10;}
</style>
<g id="mr-griddle">
	<line class="st0" x1="439.1" y1="469" x2="439.1" y2="402"/>
	<line class="st0" x1="439.1" y1="402" x2="439.1" y2="268"/>
	<line class="st0" x1="439.1" y1="268" x2="439.1" y2="167.5"/>
	<line class="st0" x1="439.1" y1="268" x2="362.7" y2="301.5"/>
	<line class="st0" x1="362.7" y1="301.5" x2="324.6" y2="368.5"/>
	<line class="st0" x1="324.6" y1="368.5" x2="400.9" y2="469"/>
	<line class="st0" x1="400.9" y1="469" x2="439.1" y2="502.5"/>
	<line class="st0" x1="439.1" y1="268" x2="515.5" y2="234.5"/>
	<line class="st0" x1="515.5" y1="234.5" x2="630" y2="234.5"/>
	<line class="st0" x1="630" y1="234.5" x2="706.4" y2="167.5"/>
	<line class="st0" x1="706.4" y1="167.5" x2="744.6" y2="134"/>
	<line class="st0" x1="439.1" y1="469" x2="362.7" y2="469"/>
	<line class="st0" x1="362.7" y1="469" x2="324.6" y2="603"/>
	<line class="st0" x1="324.6" y1="603" x2="248.2" y2="737"/>
	<line class="st0" x1="248.2" y1="737" x2="210" y2="804"/>
	<line class="st0" x1="439.1" y1="469" x2="515.5" y2="469"/>
	<line class="st0" x1="515.5" y1="469" x2="630" y2="502.5"/>
	<line class="st0" x1="630" y1="502.5" x2="782.7" y2="569.5"/>
	<line class="st0" x1="782.7" y1="569.5" x2="820.9" y2="603"/>
</g>
</svg>
