<?xml version="1.0" encoding="utf-8"?>
<!-- Generator: Adobe Illustrator 23.0.6, SVG Export Plug-In . SVG Version: 6.00 Build 0)  -->
<svg version="1.1" id="Ebene_1" xmlns="http://www.w3.org/2000/svg" xmlns:xlink="http://www.w3.org/1999/xlink" x="0px" y="0px"
	 viewBox="0 0 122.7 63.5" style="enable-background:new 0 0 122.7 63.5;" xml:space="preserve">
<style type="text/css">
	.st0{fill:#707070;}
	.st1{fill:#1D1D1B;}
	.st2{fill:#FFFFFF;}
</style>
<g id="JGU_Logo">
	<path class="st0" d="M0,51.4c0.2,0.1,0.4,0.1,0.6,0.1c1.1,0,1.5-0.7,1.5-1.4v-3.8H1.3v3.6c0,0.6-0.2,1-0.8,1c-0.1,0-0.3,0-0.5-0.1
		L0,51.4L0,51.4z M3.8,48.8c0-1.1,0.6-2,1.7-2c1.1,0,1.7,1,1.7,2c0,1-0.5,2-1.7,2C4.3,50.8,3.8,49.8,3.8,48.8L3.8,48.8z M3,48.8
		c0,1.6,0.9,2.7,2.5,2.7S8,50.4,8,48.8c0-1.5-0.9-2.7-2.5-2.7C4,46.1,3,47.3,3,48.8L3,48.8z M9.1,51.4h0.7V49h2.5v2.4H13v-5.2h-0.7
		v2.2H9.8v-2.2H9.1V51.4L9.1,51.4z M13.4,51.4h0.8l0.5-1.3h2.5l0.5,1.3h0.8l-2.2-5.2h-0.8L13.4,51.4L13.4,51.4z M17,49.5h-2.1l1-2.6
		L17,49.5L17,49.5z M19,51.4h0.7v-4.3h0l2.3,4.3h1v-5.2h-0.7v4.2h0L20,46.2h-1V51.4L19,51.4z M24.3,51.4h0.7v-4.3h0l2.3,4.3h1v-5.2
		h-0.7v4.2h0l-2.3-4.2h-1V51.4L24.3,51.4z M29.9,51.4h2.9v-0.7h-2.2V49h2v-0.7h-2v-1.5h2.2v-0.7h-2.9L29.9,51.4L29.9,51.4z
		 M36.4,46.3c-0.4-0.1-0.8-0.2-1.1-0.2c-0.9,0-1.7,0.5-1.7,1.4c0,1.6,2.2,1.3,2.2,2.4c0,0.6-0.6,0.8-1,0.8c-0.4,0-0.8-0.1-1.1-0.3
		l-0.1,0.7c0.3,0.1,0.7,0.2,1.1,0.2c1,0,1.9-0.4,1.9-1.5c0-1.7-2.2-1.5-2.2-2.5c0-0.5,0.5-0.7,0.9-0.7c0.4,0,0.6,0.1,1,0.2
		L36.4,46.3L36.4,46.3z"/>
	<path class="st0" d="M100.1,59.7h0.7v-4.5h0l1.7,4.5h0.7l1.7-4.5h0v4.5h0.7v-5.2h-1.2l-1.6,4.3l-1.6-4.3h-1.2L100.1,59.7
		L100.1,59.7z M106.3,59.7h0.8l0.5-1.3h2.5l0.5,1.3h0.8l-2.2-5.2h-0.8L106.3,59.7L106.3,59.7z M109.9,57.8h-2.1l1-2.6L109.9,57.8
		L109.9,57.8z M111.9,59.7h0.7v-5.2h-0.7V59.7L111.9,59.7z M114.2,59.7h0.7v-4.3h0l2.3,4.3h0.9v-5.2h-0.7v4.2h0l-2.3-4.2h-1V59.7
		L114.2,59.7z M119.1,59.7h3.6V59h-2.7l2.7-3.9v-0.7h-3.4v0.7h2.6l-2.7,3.9L119.1,59.7L119.1,59.7z"/>
	<path class="st0" d="M29.3,54.5h-1.3v5c0,1.7-0.5,2.9-2.2,2.9c-1.6,0-2.2-1.2-2.2-2.9v-5h-1.3v5.2c0,2.5,1.3,3.8,3.4,3.8
		s3.4-1.3,3.4-3.8V54.5L29.3,54.5z M31.7,63.4H33v-7.3h0l4,7.3h1.6v-8.9h-1.3v7.1h0l-3.9-7.1h-1.7L31.7,63.4L31.7,63.4z M41.2,63.4
		h1.3v-8.9h-1.3V63.4L41.2,63.4z M51.8,54.5h-1.3l-2.8,7.7h0l-2.7-7.7h-1.4l3.3,8.9h1.6L51.8,54.5L51.8,54.5z M52.9,63.4h5v-1.1
		h-3.7v-2.9h3.4v-1.1h-3.4v-2.6h3.7v-1.1h-5V63.4L52.9,63.4z M60.2,63.4h1.3v-3.9h0.8c0.7,0,1.1,0,1.5,0.9l1.4,3.1h1.4l-1.7-3.5
		c-0.3-0.5-0.5-0.7-0.9-0.9v0c1-0.2,1.8-0.9,1.8-2c0-2.1-1.7-2.4-3.4-2.4h-2.2V63.4L60.2,63.4z M61.5,55.6h1.2
		c1.2,0,1.8,0.5,1.8,1.3c0,0.8-0.7,1.4-1.9,1.4h-1.1L61.5,55.6L61.5,55.6z M72.6,54.7c-0.6-0.2-1.3-0.3-1.9-0.3
		c-1.6,0-2.8,0.8-2.8,2.4c0,2.8,3.8,2.2,3.8,4.2c0,1-1,1.4-1.7,1.4c-0.6,0-1.4-0.3-1.8-0.4L68,63.1c0.6,0.2,1.2,0.4,1.8,0.4
		c1.8,0,3.2-0.8,3.2-2.6c0-2.9-3.8-2.5-3.8-4.2c0-0.9,0.8-1.2,1.5-1.2c0.7,0,1,0.1,1.7,0.4L72.6,54.7L72.6,54.7z M75,63.4h1.3v-8.9
		H75V63.4L75,63.4z M80.2,63.4h1.3v-7.7h2.8v-1.1h-6.8v1.1h2.8V63.4L80.2,63.4z M85.7,53.8h1.2v-1.3h-1.2V53.8L85.7,53.8z
		 M87.7,53.8h1.2v-1.3h-1.2V53.8L87.7,53.8z M82.9,63.4h1.3l0.9-2.2h4.3l0.9,2.2h1.4L88,54.5h-1.3L82.9,63.4L82.9,63.4z M89,60.1
		h-3.5l1.8-4.4L89,60.1L89,60.1z M93.1,63.4h1.3v-7.7h2.8v-1.1h-6.8v1.1h2.8L93.1,63.4L93.1,63.4z"/>
	<path class="st0" d="M47.1,42.8c-0.7-0.3-1.3-0.4-2.6-0.4c-2.7,0-4.7,1.8-4.7,4.5c0,2.8,1.9,4.6,4.7,4.6c1.4,0,2.2-0.2,2.7-0.4
		v-4.6h-3.1v1H46v2.7c-0.3,0.1-0.5,0.2-1.4,0.2c-1.8,0-3.3-1.4-3.3-3.5c0-2,1.4-3.5,3.4-3.5c1.1,0,1.8,0.2,2.4,0.6L47.1,42.8
		L47.1,42.8z M56.4,42.5h-1.3v5c0,1.7-0.5,2.9-2.2,2.9c-1.6,0-2.2-1.2-2.2-2.9v-5h-1.3v5.2c0,2.5,1.3,3.8,3.4,3.8s3.4-1.3,3.4-3.8
		L56.4,42.5L56.4,42.5z M60,51.3h1.3v-7.7H64v-1.1h-6.8v1.1H60L60,51.3L60,51.3z M65.1,51.3h5v-1.1h-3.7v-2.9h3.4v-1.1h-3.4v-2.6
		h3.7v-1.1h-5V51.3L65.1,51.3z M72.5,51.3h1.3v-7.3h0l4,7.3h1.6v-8.9h-1.3v7.1h0l-3.9-7.1h-1.7V51.3L72.5,51.3z M82.3,51.3h2.4
		c1.8,0,3.4-0.5,3.4-2.4c0-1.2-0.8-2-2.1-2.1v0c1.1-0.3,1.8-0.9,1.8-2.1c0-1.6-1.3-2.2-3.1-2.2h-2.4L82.3,51.3L82.3,51.3z
		 M83.6,47.3h0.8c1.1,0,2.3,0.2,2.3,1.6c0,1.2-1,1.4-2.2,1.4h-1V47.3L83.6,47.3z M83.6,43.5h1.3c0.7,0,1.6,0.3,1.6,1.3
		c0,1.3-1,1.4-2.3,1.4h-0.7V43.5L83.6,43.5z M90.5,51.3h5v-1.1h-3.7v-2.9h3.4v-1.1h-3.4v-2.6h3.7v-1.1h-5V51.3L90.5,51.3z
		 M97.7,51.3H99v-3.9h0.8c0.7,0,1.1,0,1.5,0.9l1.4,3.1h1.4l-1.7-3.5c-0.3-0.5-0.5-0.7-0.9-0.9v0c1-0.2,1.8-0.9,1.8-2
		c0-2.1-1.7-2.4-3.4-2.4h-2.2L97.7,51.3L97.7,51.3z M99,43.6h1.2c1.2,0,1.8,0.5,1.8,1.3c0,0.8-0.7,1.4-1.9,1.4H99V43.6L99,43.6z
		 M112.2,42.8c-0.7-0.3-1.3-0.4-2.6-0.4c-2.7,0-4.7,1.8-4.7,4.5c0,2.8,1.9,4.6,4.7,4.6c1.4,0,2.2-0.2,2.7-0.4v-4.6h-3.1v1h1.9v2.7
		c-0.3,0.1-0.5,0.2-1.4,0.2c-1.8,0-3.3-1.4-3.3-3.5c0-2,1.4-3.5,3.4-3.5c1.1,0,1.8,0.2,2.4,0.6L112.2,42.8L112.2,42.8z"/>
	<polygon class="st1" points="53,0 53,35.4 88.5,35.4 88.5,0 	"/>
	<path class="st2" d="M58.7,21.9c0,1.3-0.1,2.9-0.7,2.9c-0.4,0-0.5-0.3-0.6-0.6c-0.1-0.3-0.2-0.6-0.7-0.6c-0.4,0-0.7,0.3-0.7,0.7
		c0.1,0.7,0.8,1,1.5,1c1.8,0,2.3-1.8,2.3-3.3v-7.8c0-0.6,0.4-0.7,0.9-0.7l0.4,0l0.1-0.1v-0.3l-0.1-0.1c-0.5,0-1.3,0.1-2,0.1
		c-0.9,0-1.3-0.1-1.7-0.1c-0.1,0-0.2,0-0.2,0.2v0.2l0.1,0.1c1.1,0,1.3,0.2,1.3,0.9L58.7,21.9L58.7,21.9z M70.8,19.5
		c0-0.7,0.2-0.8,0.8-0.8h0.2c0.1,0,0.1-0.2,0.1-0.3c0-0.1,0-0.2-0.1-0.2H68c-0.1,0-0.1,0.1-0.1,0.3c0,0.1,0,0.2,0.1,0.2h1
		c0.5,0,0.9,0.2,0.9,0.8v0.9c0,0.8-0.8,1.5-2.3,1.5c-2,0-3.7-2-3.7-4.3c0-3.1,2.4-4.3,4-4.3c1.7,0,2.5,1,2.7,2
		c0,0.1,0.1,0.1,0.2,0.1c0.1,0,0.3,0,0.3-0.1c0-0.6-0.1-1.6-0.1-1.7c-0.8-0.4-1.7-0.7-2.9-0.7c-1.5,0-5.5,0.8-5.5,5
		c0,2,1.7,4.6,5.4,4.6c0.6,0,2.1-0.2,3.1-0.8L70.8,19.5L70.8,19.5z"/>
	<path class="st2" d="M84.8,13.1h-1.3v5.3c0,1.8-0.6,3-2.3,3c-1.7,0-2.3-1.2-2.3-3v-5.3h-1.3v5.4c0,2.6,1.3,4,3.6,4
		c2.3,0,3.6-1.4,3.6-4V13.1L84.8,13.1z"/>
	<polygon class="st2" points="74.3,6.6 74.3,28.5 75,28.5 75,6.6 	"/>
</g>
</svg>
