<svg id="nachbau" xmlns="http://www.w3.org/2000/svg" viewBox="0 0 255.98 97.55"><defs><style>.cls-1{fill:none;stroke:#000;stroke-miterlimit:10;stroke-width:0.5px;}</style></defs><title>180213_motionbank_logo</title><path class="cls-1" d="M408.5,542.5a56.57,56.57,0,0,1,6-24c2.41-4.82,5.06-9.36,7.06-9.36,5,0,3.94,10.36,3.94,17.36s-1,14-2,14c-2,0-3,0-3-6,0-3,1-10,1-12s-2-3-4,0-7,12-11,12c-7.33,0-9.33-14-14-14-2.24,0-4,3-4,6s-1.33,11.67-3.33,13.67-3.47-1.85-3.68-4.84c-.36-5,1.77-18.9,2.77-21.9s5.83-3.89,9.08,2.57c2,4,3.16,6.5,5.16,6.5s16.53-3.83,29.33-8.33,24-9.67,28.67-9.67c6.08,0,18.15,4.17,18.15,21,0,6.32-7.48,19.52-18.8,19.52-12.35,0-17.18-13.9-16-22.57,4-3,13.23-7.29,14.67-9,2.67-3.17-1-6-3-3s-6,10.5-6,18a9,9,0,0,0,9,9c7.5,0,13-6,13-17,8-3,34-12,42-13-3,3-6,9-7,12s-3,15-4,18-5,4.83-5-1.17,1-15.83,1-18.83c-3-5-5-5-5-8s3.17-6,23-6c6,0,10-1,13,6s1.83,26.67.83,28.67-4.5,4.16-4.63-3.53c-.08-5,1.8-15.14,1.8-19.14,14.17-3.17,24.5-10,35-10,9.5,0,19,5,19,17,0,7.67-3.67,22.5-18.67,22.5S542,530.83,543.5,521.5c2,5,4.33,8.67,3.33,12.67,1-10,2-21,13.17-21,10,0,10.5,8.7,10.5,11.7,0,5.3-2,8.63-7,11.63,3,1,13.5,7,21,7,4.83,0,7-5,8-10s2-13,5-13c5.5,0,11.75,21,20,21,6.5,0,8-26,8-29s-2.88-4.5-3.88.5-.5,16.73-4.68,16.73c-.94,0-1.9-.18-3.44-2.23-3-4-8.88-18-15-18-3,0-4,6-5,8s-4,18-4,20c0,2.54,14.62,10.88,16.18,22.52,1.87,14-.18,26.48-.18,30.48s1,6.23,2,6.11c3.25-.37,3-7.11,8-7.11s8.62,8.25,14.5,8.25c5,0-2.5-6.75-2.5-12.25,0-4,4.67-12.66,9-20,1.44-2.44-1-5-3-3s-8,9-12,9-4-4-5-6c-2,0-29.53-4.25-38-5-3.15-.28-6,0-4,5s7.25,19.62,10.62,19.62c.89,0,1.88-1.62,2.38-3.62,1-4,3-13,4-15s3.54-2.07,3,3c-.77,7.25-1,15-1,17s0,8-5,8-7-5-9-8-7-12-9-12c-5.25,0-3.75,19.8-9.16,19.8-3,0-.84-19.8.16-25.8-3,2-27.7,13.44-29,14,.12,1.62,2.37,3.8,3.37.8s1-8.42-.37-10.8c-.5-.87-3-2-5,2,2,4,3.17,5.77,7.66,12.2,1.61,2.32,7.34,8.8,7.34,11.8-4-3-7-6-12-6s-9,6-13,6-3-2.73-2-7c1.43-6.16,7-21,10-25s8.67-1.87,10,1c5.75,12.38,7,17,8,23-4-1-28-6-34-7s-16-4-21-5c3-3,5-8,2-11s-4.38-2.5-6.38,3.5-7.24,23.5,4.38,23.5c4,0,7-3,6-5s-4-2-7,1-4,6-8,6c-5.62,0-3.76-7.61-3.76-12.61s.14-11.51.76-13.39,6.88-9.38,13.5-9.38c2,0,6,1.13,7,4.13.49,1.48-.13,3,.24,4.56s6.14,9.57,2.26,20.69c-2.11,6-9,9-15,10" transform="translate(-381.2 -503.2)"/></svg>